<svg width="16" height="15" viewBox="0 0 16 15" fill="none" xmlns="http://www.w3.org/2000/svg">
<path d="M6.84808 1.00469L7.61062 0.242157C7.93349 -0.080719 8.45559 -0.080719 8.77503 0.242157L15.4524 6.91608C15.7753 7.23895 15.7753 7.76105 15.4524 8.08049L8.77503 14.7578C8.45216 15.0807 7.93006 15.0807 7.61062 14.7578L6.84808 13.9953C6.52177 13.669 6.52864 13.1366 6.86182 12.8172L11.0008 8.87394H1.12905C0.672217 8.87394 0.304688 8.50641 0.304688 8.04958V6.95042C0.304688 6.49359 0.672217 6.12606 1.12905 6.12606H11.0008L6.86182 2.18285C6.5252 1.86341 6.51833 1.33101 6.84808 1.00469Z" fill="white"/>
</svg>
