<svg width="17" height="18" viewBox="0 0 17 18" fill="none" xmlns="http://www.w3.org/2000/svg">
<path d="M4.95853 16.8395C4.41436 16.841 3.88203 16.6714 3.42898 16.3522C2.97594 16.033 2.62258 15.5786 2.41369 15.0466C2.20479 14.5146 2.14977 13.9288 2.25559 13.3637C2.36141 12.7985 2.62331 12.2793 3.00809 11.8719C3.39288 11.4644 3.88324 11.1871 4.41702 11.0751C4.9508 10.963 5.50399 11.0213 6.00647 11.2425C6.50895 11.4637 6.93811 11.8378 7.23956 12.3175C7.54101 12.7972 7.70119 13.3608 7.69978 13.937C7.69791 14.7062 7.4085 15.4433 6.89483 15.9872C6.38115 16.5311 5.68498 16.8375 4.95853 16.8395ZM4.95853 12.152C4.62481 12.1505 4.29818 12.254 4.02001 12.4492C3.74185 12.6444 3.52467 12.9227 3.39599 13.2487C3.2673 13.5748 3.2329 13.9339 3.29715 14.2806C3.3614 14.6274 3.5214 14.9461 3.75688 15.1965C3.99236 15.4469 4.29274 15.6177 4.61995 15.6872C4.94716 15.7566 5.28649 15.7217 5.59494 15.5869C5.9034 15.452 6.16711 15.2232 6.35267 14.9295C6.53823 14.6358 6.63728 14.2904 6.63728 13.937C6.63544 13.4655 6.4582 13.0138 6.14397 12.6796C5.82975 12.3455 5.40384 12.156 4.95853 12.152Z" fill="white"/>
<path d="M4.95854 6.97624C4.41467 6.97773 3.88262 6.80832 3.42973 6.48947C2.97683 6.17062 2.62347 5.71666 2.41437 5.18506C2.20527 4.65346 2.14983 4.06812 2.25507 3.50314C2.36032 2.93816 2.62151 2.41895 3.00559 2.01123C3.38967 1.60351 3.87936 1.32561 4.41268 1.21272C4.94599 1.09983 5.49895 1.15701 6.00156 1.37704C6.50416 1.59707 6.93381 1.97005 7.23612 2.44876C7.53842 2.92746 7.69979 3.49038 7.69979 4.06624C7.69979 4.83672 7.41121 5.57576 6.89733 6.12128C6.38345 6.66679 5.68622 6.97426 4.95854 6.97624ZM4.95854 2.28874C4.62482 2.28874 4.2986 2.39363 4.02121 2.5901C3.74383 2.78657 3.52776 3.06579 3.40037 3.3924C3.27298 3.719 3.24001 4.07829 3.30564 4.42475C3.37126 4.77121 3.53253 5.08925 3.76901 5.33858C4.00548 5.58792 4.30653 5.75733 4.63402 5.82535C4.9615 5.89338 5.30069 5.85696 5.60861 5.72071C5.91653 5.58445 6.17932 5.3545 6.36371 5.05997C6.5481 4.76544 6.64578 4.4196 6.64438 4.06624C6.6425 3.59413 6.46406 3.14203 6.14811 2.8089C5.83216 2.47577 5.40443 2.28874 4.95854 2.28874Z" fill="white"/>
<path d="M12.0452 6.97625C11.5016 6.97625 10.9703 6.80558 10.5183 6.48583C10.0664 6.16607 9.7141 5.71159 9.50608 5.17986C9.29807 4.64813 9.24364 4.06302 9.34968 3.49854C9.45573 2.93405 9.71748 2.41554 10.1018 2.00857C10.4862 1.6016 10.9759 1.32445 11.509 1.21217C12.0422 1.09988 12.5948 1.15751 13.097 1.37776C13.5991 1.59801 14.0284 1.97099 14.3304 2.44954C14.6324 2.92809 14.7935 3.49071 14.7935 4.06625C14.7935 4.83803 14.504 5.5782 13.9886 6.12393C13.4732 6.66966 12.7741 6.97625 12.0452 6.97625ZM12.0452 2.28875C11.7115 2.28875 11.3853 2.39363 11.1079 2.59011C10.8305 2.78658 10.6144 3.0658 10.487 3.39241C10.3597 3.71901 10.3267 4.0783 10.3923 4.42476C10.4579 4.77121 10.6192 5.08926 10.8557 5.33859C11.0922 5.58793 11.3932 5.75734 11.7207 5.82536C12.0482 5.89339 12.3874 5.85697 12.6953 5.72071C13.0032 5.58446 13.266 5.35451 13.4504 5.05998C13.6348 4.76545 13.7324 4.41961 13.731 4.06625C13.731 3.83219 13.6874 3.60044 13.6026 3.38429C13.5178 3.16815 13.3935 2.97186 13.2368 2.80671C13.0802 2.64156 12.8943 2.51078 12.6898 2.4219C12.4853 2.33301 12.2663 2.28776 12.0452 2.28875Z" fill="white"/>
<path d="M4.96099 12.1516C4.89096 12.1526 4.82145 12.1387 4.75656 12.1108C4.69168 12.0829 4.63273 12.0415 4.58321 11.9891C4.53369 11.9366 4.49459 11.8742 4.46823 11.8055C4.44187 11.7368 4.42878 11.6632 4.42974 11.5891V6.41406C4.42974 6.26488 4.48571 6.1218 4.58534 6.01631C4.68496 5.91083 4.82009 5.85156 4.96099 5.85156C5.10188 5.85156 5.23701 5.91083 5.33664 6.01631C5.43626 6.1218 5.49224 6.26488 5.49224 6.41406V11.5891C5.49224 11.7382 5.43626 11.8813 5.33664 11.9868C5.23701 12.0923 5.10188 12.1516 4.96099 12.1516Z" fill="white"/>
<path d="M9.21094 9.99906H4.96094C4.82004 9.99906 4.68492 9.9398 4.58529 9.83431C4.48566 9.72882 4.42969 9.58575 4.42969 9.43656C4.42969 9.28738 4.48566 9.1443 4.58529 9.03882C4.68492 8.93333 4.82004 8.87406 4.96094 8.87406H9.21094C9.51983 8.88778 9.82805 8.83359 10.1162 8.71491C10.4043 8.59624 10.6661 8.41565 10.885 8.18454C11.104 7.95342 11.2753 7.67678 11.3883 7.37207C11.5012 7.06735 11.5534 6.74116 11.5414 6.41406C11.5414 6.26488 11.5973 6.1218 11.697 6.01631C11.7966 5.91083 11.9317 5.85156 12.0726 5.85156C12.2135 5.85156 12.3486 5.91083 12.4483 6.01631C12.5479 6.1218 12.6039 6.26488 12.6039 6.41406C12.6208 6.89031 12.5446 7.36513 12.38 7.8087C12.2154 8.25227 11.9659 8.65503 11.6473 8.99167C11.3287 9.32832 10.9478 9.59158 10.5286 9.76494C10.1093 9.9383 9.66069 10.018 9.21094 9.99906Z" fill="white"/>
</svg>
