<svg width="20" height="23" viewBox="0 0 20 23" fill="none" xmlns="http://www.w3.org/2000/svg">
<path d="M10.015 7.6464C6.62848 7.6464 3.02734 6.81194 3.02734 5.26265C3.02734 3.71337 6.62848 2.87891 10.015 2.87891C13.4015 2.87891 17.0026 3.71337 17.0026 5.26265C17.0056 6.81194 13.4045 7.6464 10.015 7.6464ZM10.015 3.41727C6.21411 3.41727 3.56394 4.38931 3.56394 5.26265C3.56394 6.13599 6.21411 7.10803 10.015 7.10803C13.8158 7.10803 16.466 6.13599 16.466 5.26265C16.466 4.38931 13.8188 3.41727 10.015 3.41727Z" fill="#010101"/>
<path d="M10.015 12.6416C6.62848 12.6416 3.02734 11.8071 3.02734 10.2578H3.56394C3.56394 11.1312 6.21411 12.1032 10.015 12.1032C13.8158 12.1032 16.466 11.1312 16.466 10.2578H17.0026C17.0056 11.8071 13.4045 12.6416 10.015 12.6416Z" fill="#010101"/>
<path d="M3.29564 13.938C3.14659 13.938 3.02734 13.8183 3.02734 13.6688V5.26137C3.02734 5.11182 3.14659 4.99219 3.29564 4.99219C3.44469 4.99219 3.56394 5.11182 3.56394 5.26137V13.6688C3.56394 13.8183 3.44469 13.938 3.29564 13.938Z" fill="#010101"/>
<path d="M16.7331 13.938C16.5841 13.938 16.4648 13.8183 16.4648 13.6688V5.26137C16.4648 5.11182 16.5841 4.99219 16.7331 4.99219C16.8822 4.99219 17.0014 5.11182 17.0014 5.26137V13.6688C17.0044 13.8183 16.8822 13.938 16.7331 13.938Z" fill="#010101"/>
<path d="M10.3532 16.963C9.80764 16.963 9.42309 16.6908 9.39924 16.6759C9.39626 16.6759 8.54069 16.1674 7.47943 16.1674C6.86235 16.1674 6.49866 16.305 6.11112 16.4486C5.81301 16.5592 5.50596 16.6759 5.09457 16.7178C4.14957 16.8165 2.58749 16.1734 2.52191 16.1465C2.38478 16.0897 2.3192 15.9341 2.37584 15.7966C2.43248 15.659 2.59047 15.5932 2.72462 15.65C2.73953 15.656 4.23006 16.2631 5.03793 16.1824C5.38075 16.1465 5.64607 16.0478 5.92331 15.9431C6.31681 15.7966 6.76397 15.6291 7.47943 15.6291C8.70167 15.6291 9.65561 16.2033 9.69734 16.2302C9.7361 16.2572 10.3204 16.6549 11.006 16.2302C11.8407 15.7128 12.738 15.2612 13.7605 15.8833C14.3985 16.2721 15.3375 16.5921 16.1692 15.9042C17.0815 15.1505 17.5256 15.2642 17.6419 15.315C17.776 15.3778 17.8357 15.5364 17.776 15.6709C17.7194 15.7966 17.5763 15.8594 17.4481 15.8145C17.4124 15.8115 17.1351 15.8055 16.5121 16.32C15.6714 17.0109 14.5982 17.0198 13.4833 16.3409C12.7887 15.9192 12.1776 16.1345 11.2892 16.6849C10.9494 16.8942 10.6304 16.963 10.3532 16.963Z" fill="#010101"/>
<path d="M10.3532 20.4426C9.80764 20.4426 9.42309 20.1704 9.39924 20.1554C9.39626 20.1554 8.54069 19.644 7.47943 19.644C6.86235 19.644 6.49866 19.7816 6.11112 19.9251C5.81301 20.0358 5.50596 20.1524 5.09457 20.1943C4.15255 20.293 2.58749 19.65 2.52191 19.6231C2.38478 19.5662 2.3192 19.4107 2.37584 19.2731C2.43248 19.1355 2.59047 19.0697 2.72462 19.1266C2.73953 19.1326 4.23304 19.7427 5.03793 19.6589C5.38075 19.6231 5.64607 19.5244 5.92331 19.4197C6.31681 19.2731 6.76397 19.1056 7.47943 19.1056C8.70167 19.1056 9.65561 19.6799 9.69734 19.7068C9.7361 19.7337 10.3204 20.1315 11.006 19.7068C11.8407 19.1894 12.741 18.7378 13.7605 19.3599C14.3985 19.7487 15.3375 20.0687 16.1692 19.3808C17.0815 18.6271 17.5256 18.7407 17.6419 18.7916C17.776 18.8544 17.8357 19.0129 17.776 19.1475C17.7194 19.2731 17.5763 19.3359 17.4481 19.2911C17.4124 19.2881 17.1351 19.2821 16.5121 19.7935C15.6714 20.4844 14.5982 20.4934 13.4833 19.8145C12.7887 19.3928 12.1776 19.6081 11.2892 20.1584C10.9494 20.3708 10.6304 20.4426 10.3532 20.4426Z" fill="#010101"/>
</svg>
