<svg width="18" height="12" viewBox="0 0 18 12" fill="none" xmlns="http://www.w3.org/2000/svg">
<path d="M14.8297 5.2125C14.9395 4.92589 15.0011 4.6125 15.0011 4.28571C15.0011 2.86607 13.8493 1.71429 12.4297 1.71429C11.902 1.71429 11.4092 1.875 11.002 2.14821C10.26 0.8625 8.87522 0 7.28683 0C4.91897 0 3.00112 1.91786 3.00112 4.28571C3.00112 4.35804 3.00379 4.43036 3.00647 4.50268C1.50647 5.03036 0.429688 6.46071 0.429688 8.14286C0.429688 10.2723 2.15737 12 4.28683 12H14.144C16.0377 12 17.5725 10.4652 17.5725 8.57143C17.5725 6.91339 16.394 5.52857 14.8297 5.2125ZM11.2699 7.58839L8.44665 10.4116C8.28058 10.5777 8.00737 10.5777 7.84129 10.4116L5.01808 7.58839C4.74754 7.31786 4.9404 6.85714 5.32076 6.85714H7.07254V3.85714C7.07254 3.62143 7.2654 3.42857 7.50112 3.42857H8.78683C9.02254 3.42857 9.2154 3.62143 9.2154 3.85714V6.85714H10.9672C11.3475 6.85714 11.5404 7.31786 11.2699 7.58839Z" fill="white"/>
</svg>
