<svg width="15" height="16" viewBox="0 0 15 16" fill="none" xmlns="http://www.w3.org/2000/svg">
<path d="M8.60714 6.42801V6.92801H9.10714H13.9286C14.2441 6.92801 14.5 7.18396 14.5 7.49944V8.57087C14.5 8.88636 14.2441 9.1423 13.9286 9.1423H9.10714H8.60714V9.6423V14.4637C8.60714 14.7792 8.3512 15.0352 8.03571 15.0352H6.96429C6.6488 15.0352 6.39286 14.7792 6.39286 14.4637V9.6423V9.1423H5.89286H1.07143C0.755941 9.1423 0.5 8.88636 0.5 8.57087V7.49944C0.5 7.18395 0.755941 6.92801 1.07143 6.92801H5.89286H6.39286V6.42801V1.60658C6.39286 1.2911 6.6488 1.03516 6.96429 1.03516H8.03571C8.3512 1.03516 8.60714 1.2911 8.60714 1.60658V6.42801Z" fill="#505050" stroke="white"/>
</svg>
